<svg xmlns="http://www.w3.org/2000/svg" width="12.351" height="17.057" viewBox="0 0 12.351 17.057">
  <g id="Group_162" data-name="Group 162" transform="translate(-1324.049 -1351.773)">
    <path id="Path_584" data-name="Path 584" d="M1330.094,1368.831a3.294,3.294,0,0,1-.426-.356,34.707,34.707,0,0,1-3.823-5.3,15.19,15.19,0,0,1-1.534-3.476,6.012,6.012,0,0,1,.794-5.188,6.169,6.169,0,0,1,9.029-1.338,6.036,6.036,0,0,1,2.2,3.857,6.849,6.849,0,0,1-.46,3.507,20.7,20.7,0,0,1-2.264,4.249,37.13,37.13,0,0,1-2.821,3.688,3.368,3.368,0,0,1-.426.356Zm.114-7.772a3.11,3.11,0,1,0-3.085-3.142A3.112,3.112,0,0,0,1330.208,1361.058Z" fill="#56256b"/>
  </g>
</svg>
