<svg xmlns="http://www.w3.org/2000/svg" width="60.353" height="68" viewBox="0 0 60.353 68">
  <g id="Group_10" data-name="Group 10" transform="translate(-1509.603 -981.87)">
    <path id="Path_211" data-name="Path 211" d="M1516.643,1049.871a9.2,9.2,0,0,1-3.871-1.62,7.926,7.926,0,0,1-3.158-6.1c-.016-.331-.009-.664-.009-1q0-25.531,0-51.063a7.938,7.938,0,0,1,6.231-8.017,8.894,8.894,0,0,1,1.973-.2q16.766-.018,33.532-.006a7.96,7.96,0,0,1,8.2,8.164c.008,2.192,0,4.383,0,6.607a.73.73,0,0,1-.729.729h-3.854a.729.729,0,0,1-.729-.729h0c0-2.191.007-4.383,0-6.574a2.672,2.672,0,0,0-2.907-2.887q-16.766-.006-33.533,0a2.879,2.879,0,0,0-2.1.778,3.876,3.876,0,0,0-.474.889,7.446,7.446,0,0,0-.289,1.192h0v51.66h0a5.583,5.583,0,0,0,.192,1.1,2.673,2.673,0,0,0,.556.961,2.938,2.938,0,0,0,2.129.792c2.063-.047,22.211,0,33.521,0a2.909,2.909,0,0,0,2.909-2.9c.008-2.257,0-4.515,0-6.773v-.1a.664.664,0,0,1,.664-.665h3.983a.664.664,0,0,1,.665.665c0,2.28,0,4.559,0,6.839a7.939,7.939,0,0,1-6.8,8.145,1.262,1.262,0,0,0-.242.1Z" transform="translate(0 0)" fill="#56256b"/>
    <path id="Path_212" data-name="Path 212" d="M1752.89,1164.263h-2.748a1.332,1.332,0,0,1-1.281-1.693l6.678-23.71a1.331,1.331,0,0,1,1.281-.97h2.753a1.331,1.331,0,0,1,1.281,1.693l-6.683,23.71A1.331,1.331,0,0,1,1752.89,1164.263Z" transform="translate(-207.376 -135.258)" fill="#56256b"/>
    <path id="Path_213" data-name="Path 213" d="M1635.178,1164.987l1.712,2.021a1.331,1.331,0,0,1-.153,1.874l-5.095,4.334a1.331,1.331,0,0,0,0,2.028l5.095,4.336a1.331,1.331,0,0,1,.153,1.874l-1.709,2.018a1.332,1.332,0,0,1-1.878.155l-9.87-8.379a1.332,1.332,0,0,1,0-2.03l9.868-8.383A1.332,1.332,0,0,1,1635.178,1164.987Z" transform="translate(-98.275 -158.342)" fill="#56256b"/>
    <path id="Path_214" data-name="Path 214" d="M1856.434,1167.016l1.712-2.018a1.332,1.332,0,0,1,1.877-.153l9.868,8.379a1.332,1.332,0,0,1,0,2.03l-9.867,8.382a1.332,1.332,0,0,1-1.878-.153l-1.712-2.017a1.332,1.332,0,0,1,.152-1.876l5.095-4.336a1.331,1.331,0,0,0,0-2.027l-5.1-4.335A1.331,1.331,0,0,1,1856.434,1167.016Z" transform="translate(-300.404 -158.352)" fill="#56256b"/>
    <rect id="Rectangle_64" data-name="Rectangle 64" width="10.562" height="5.223" rx="2.611" transform="translate(1529.288 992.546)" fill="#56256b"/>
    <path id="Path_215" data-name="Path 215" d="M1679.926,1378.543a2.649,2.649,0,1,1,2.683-2.934A2.652,2.652,0,0,1,1679.926,1378.543Z" transform="translate(-145.401 -339.294)" fill="#56256b"/>
  </g>
</svg>
