<svg id="Group_100" data-name="Group 100" xmlns="http://www.w3.org/2000/svg" width="22.617" height="22.756" viewBox="0 0 22.617 22.756">
  <path id="Path_235" data-name="Path 235" d="M1660.713,9644.659v9.64a1.65,1.65,0,0,1-1.739,1.734h-19.149a1.656,1.656,0,0,1-1.691-1.3,2.061,2.061,0,0,1-.037-.428q0-9.647,0-19.295a1.642,1.642,0,0,1,1.724-1.729h19.166a1.641,1.641,0,0,1,1.727,1.726Zm-3.452,7.659c0-.061.008-.114.008-.168,0-1.926.009-3.854-.006-5.779a8.171,8.171,0,0,0-.138-1.4,3.894,3.894,0,0,0-1.172-2.231,3.639,3.639,0,0,0-2.352-.93,3.413,3.413,0,0,0-3.194,1.474l-.112.154-.035-.006v-1.375h-3.406v10.255h3.408v-.19q0-.952,0-1.9c0-1.3,0-2.594.009-3.892a1.811,1.811,0,0,1,.8-1.489,1.655,1.655,0,0,1,2.644.906,4.452,4.452,0,0,1,.133,1.1c.013,1.761.006,3.521.006,5.283v.193Zm-12.323-10.256h-3.393v10.256h3.393Zm-1.639-1.414c.092-.01.241-.02.388-.043a1.757,1.757,0,0,0,.193-3.432,2.48,2.48,0,0,0-1.017-.047,1.758,1.758,0,0,0-1.3,2.624A1.847,1.847,0,0,0,1643.3,9640.648Z" transform="translate(-1638.095 -9633.277)" fill="#fff"/>
</svg><svg id="Group_100" data-name="Group 100" xmlns="http://www.w3.org/2000/svg" width="22.617" height="22.756" viewBox="0 0 22.617 22.756">
  <path id="Path_235" data-name="Path 235" d="M1660.713,9644.659v9.64a1.65,1.65,0,0,1-1.739,1.734h-19.149a1.656,1.656,0,0,1-1.691-1.3,2.061,2.061,0,0,1-.037-.428q0-9.647,0-19.295a1.642,1.642,0,0,1,1.724-1.729h19.166a1.641,1.641,0,0,1,1.727,1.726Zm-3.452,7.659c0-.061.008-.114.008-.168,0-1.926.009-3.854-.006-5.779a8.171,8.171,0,0,0-.138-1.4,3.894,3.894,0,0,0-1.172-2.231,3.639,3.639,0,0,0-2.352-.93,3.413,3.413,0,0,0-3.194,1.474l-.112.154-.035-.006v-1.375h-3.406v10.255h3.408v-.19q0-.952,0-1.9c0-1.3,0-2.594.009-3.892a1.811,1.811,0,0,1,.8-1.489,1.655,1.655,0,0,1,2.644.906,4.452,4.452,0,0,1,.133,1.1c.013,1.761.006,3.521.006,5.283v.193Zm-12.323-10.256h-3.393v10.256h3.393Zm-1.639-1.414c.092-.01.241-.02.388-.043a1.757,1.757,0,0,0,.193-3.432,2.48,2.48,0,0,0-1.017-.047,1.758,1.758,0,0,0-1.3,2.624A1.847,1.847,0,0,0,1643.3,9640.648Z" transform="translate(-1638.095 -9633.277)" fill="#fff"/>
</svg>
