<svg xmlns="http://www.w3.org/2000/svg" width="63.711" height="63.713" viewBox="0 0 63.711 63.713">
  <g id="Group_15" data-name="Group 15" transform="translate(-1697.996 -1755.111)">
    <path id="Path_221" data-name="Path 221" d="M1721.888,1755.111h1c1.765.733,1.3,2.348,1.391,3.7h7.465c0-.731-.05-1.434.013-2.127.073-.8.685-1.221,1.334-1.573h1c1.745.73,1.314,2.306,1.379,3.733h8.924c1.58,0,2.264.687,2.265,2.274q0,11.6,0,23.2v.782h.733c3.939,0,7.879.029,11.818-.018a2.38,2.38,0,0,1,2.506,1.387v24.016a3.038,3.038,0,0,0-.107.348,9.422,9.422,0,0,1-9.506,7.987q-25.975.008-51.95,0a1.909,1.909,0,0,1-2.148-2.142q0-27.841,0-55.683a1.909,1.909,0,0,1,2.136-2.152q4.23,0,8.461,0h.746c0-.76-.05-1.464.013-2.157.073-.8.685-1.223,1.335-1.576h1c1.765.733,1.3,2.348,1.391,3.7h7.465c0-.731-.051-1.434.013-2.127C1720.627,1755.881,1721.239,1755.463,1721.888,1755.111Zm21,7.511h-7.437c0,.561,0,1.077,0,1.594a1.877,1.877,0,1,1-3.732.024c0-.549,0-1.1,0-1.626h-7.466c0,.571,0,1.106,0,1.641a1.874,1.874,0,1,1-3.732.008c0-.551,0-1.1,0-1.635h-7.467c0,.61.008,1.169,0,1.728a1.867,1.867,0,1,1-3.729-.007c-.009-.574,0-1.148,0-1.729h-7.546v52.414h27.873l-1.632-3.679c-.607,0-1.311.007-2.013,0a9.324,9.324,0,0,1-9.081-8.072,42.713,42.713,0,0,1-.129-4.966,5.583,5.583,0,0,1,5.728-5.747c1.617-.009,3.234,0,4.852,0h.613c0-1.817,0-3.536,0-5.256a1.93,1.93,0,0,1,2.2-2.209h12.7Zm-11.17,26.237v.6q0,9.919,0,19.838a5.593,5.593,0,0,0,5.813,5.79q7.245.01,14.49,0a5.724,5.724,0,0,0,5.951-5.952q0-9.795,0-19.589v-.687Zm-3.758,7.446c-1.946,0-3.831-.028-5.715.012a1.81,1.81,0,0,0-1.72,1.8c-.025.725-.031,1.452,0,2.177a14.438,14.438,0,0,0,.215,3.022c.769,2.951,3.333,4.808,7.22,4.231Z" transform="translate(0)" fill="#56256b"/>
    <path id="Path_222" data-name="Path 222" d="M1884.01,1849.4c-1.2,0-2.4.006-3.6,0a1.87,1.87,0,1,1,.018-3.729q3.571-.009,7.14,0a1.873,1.873,0,1,1-.018,3.73C1886.37,1849.409,1885.19,1849.4,1884.01,1849.4Z" transform="translate(-150.419 -75.504)" fill="#56256b"/>
    <path id="Path_223" data-name="Path 223" d="M1884.007,1894.317c-1.2,0-2.4.007-3.6,0a1.87,1.87,0,1,1,.025-3.729q3.57-.009,7.14,0a1.873,1.873,0,1,1-.025,3.73C1886.367,1894.321,1885.187,1894.317,1884.007,1894.317Z" transform="translate(-150.419 -112.95)" fill="#56256b"/>
  </g>
</svg>
