<svg xmlns="http://www.w3.org/2000/svg" width="16.645" height="12.496" viewBox="0 0 16.645 12.496">
  <g id="Group_163" data-name="Group 163" transform="translate(-1520.402 -782.468)">
    <path id="Path_585" data-name="Path 585" d="M1537.047,863.321v7.654c-.006.009-.016.017-.018.026a1.541,1.541,0,0,1-1.666,1.3h-13.278c-.054,0-.108,0-.163,0a1.533,1.533,0,0,1-1.518-1.563q0-3.648,0-7.3a1.239,1.239,0,0,1,.013-.124c.029.016.044.023.057.032l6.743,4.505a2.5,2.5,0,0,0,3.016,0l6.027-4.024C1536.521,863.659,1536.785,863.491,1537.047,863.321Z" transform="translate(0 -77.341)" fill="#56256b"/>
    <path id="Path_586" data-name="Path 586" d="M1537.067,784.221a2.211,2.211,0,0,1-.193.494,1.952,1.952,0,0,1-.48.517q-3.389,2.284-6.795,4.544a1.451,1.451,0,0,1-1.71,0q-3.412-2.266-6.812-4.548a1.451,1.451,0,0,1-.6-1.626,1.533,1.533,0,0,1,1.413-1.128c.049,0,.1,0,.146,0h13.409a1.542,1.542,0,0,1,1.538,1.051c.031.091.054.185.081.278Z" transform="translate(-0.02 0)" fill="#56256b"/>
  </g>
</svg>
