<svg xmlns="http://www.w3.org/2000/svg" width="22.912" height="22.909" viewBox="0 0 22.912 22.909">
  <g id="Group_98" data-name="Group 98" transform="translate(0 0)">
    <path id="Path_231" data-name="Path 231" d="M1481.1,9656.185v-8.87h.576c.713,0,1.426-.006,2.138,0,.189,0,.248-.056.27-.245.121-1.008.26-2.016.39-3.022a1.884,1.884,0,0,0,0-.2h-3.387c0-.747,0-1.466,0-2.184a3.376,3.376,0,0,1,.057-.621,1.093,1.093,0,0,1,1.058-1.01c.464-.055.935-.046,1.4-.058.32-.008.641,0,.985,0,.008-.109.019-.191.019-.275,0-.852-.008-1.7.006-2.554,0-.23-.071-.3-.292-.3-1.049-.011-2.105-.112-3.146-.029a3.883,3.883,0,0,0-3.617,3.678c-.076,1-.043,2.015-.059,3.021,0,.1,0,.205,0,.331h-2.955v3.466h2.936v8.86c-.08,0-.155.015-.231.015-2.555,0-5.11.01-7.665,0a4.275,4.275,0,0,1-4.2-3.346,4.894,4.894,0,0,1-.1-1.033c-.006-4.718.02-9.436-.014-14.154a4.343,4.343,0,0,1,3.653-4.316,6.082,6.082,0,0,1,.754-.043c4.7,0,9.4.022,14.1-.011a4.334,4.334,0,0,1,4.271,3.267,5.486,5.486,0,0,1,.121,1.084q.012,7.1,0,14.206a4.266,4.266,0,0,1-3.515,4.272,7.775,7.775,0,0,1-1.246.074C1482.662,9656.193,1481.9,9656.185,1481.1,9656.185Z" transform="translate(-1465.278 -9633.278)" fill="#fff"/>
  </g>
</svg>
