<svg xmlns="http://www.w3.org/2000/svg" width="63.05" height="62.919" viewBox="0 0 63.05 62.919">
  <g id="Group_9" data-name="Group 9" transform="translate(-768 -359.727)">
    <path id="Path_207" data-name="Path 207" d="M768,425.394c.2-1.372.341-2.753.6-4.113a30.3,30.3,0,0,1,4.855-11.507.992.992,0,0,0,.128-1.149,5.421,5.421,0,0,1,1.279-6.3,5.535,5.535,0,0,1,9.222,4.981,5.454,5.454,0,0,1-4.653,4.52,8.684,8.684,0,0,1-2.312-.153.578.578,0,0,0-.7.276,26.381,26.381,0,0,0-4.616,17.334c.95,10.429,6.17,18.121,15.489,22.85a26.248,26.248,0,0,0,21.645,1.12c.308-.112.611-.237.92-.346a1.843,1.843,0,1,1,1.328,3.435,32.1,32.1,0,0,1-9.343,2.255,3.4,3.4,0,0,0-.472.1h-3.817c-.4-.051-.8-.107-1.207-.151a31.67,31.67,0,0,1-27.863-25.895c-.207-1.143-.325-2.3-.484-3.454ZM780.456,406.4a1.828,1.828,0,0,0-1.808-1.866,1.87,1.87,0,0,0-1.87,1.82A1.827,1.827,0,0,0,778.6,408.2,1.8,1.8,0,0,0,780.456,406.4Z" transform="translate(0 -36.059)" fill="#56256b"/>
    <path id="Path_208" data-name="Path 208" d="M963.458,393.023c-.155,1.132-.281,2.269-.469,3.4a30.457,30.457,0,0,1-4.994,12.233,1.01,1.01,0,0,0-.118,1.151,5.53,5.53,0,1,1-5.889-3.21,8.039,8.039,0,0,1,2.314.136c.364.056.547.02.748-.285a27.5,27.5,0,0,0-4.194-35.6,27.389,27.389,0,0,0-28.722-5.544,4.759,4.759,0,0,1-1.053.318,1.784,1.784,0,0,1-2.01-1.331,1.806,1.806,0,0,1,1.076-2.162,30.966,30.966,0,0,1,8.172-2.173,30.367,30.367,0,0,1,22.115,5.805A30.852,30.852,0,0,1,963.1,386.544c.141.886.238,1.779.356,2.669ZM951,412.055a1.825,1.825,0,0,0,1.845,1.827,1.87,1.87,0,0,0,1.832-1.859,1.828,1.828,0,0,0-1.863-1.811A1.8,1.8,0,0,0,951,412.055Z" transform="translate(-132.408 0)" fill="#56256b"/>
    <path id="Path_210" data-name="Path 210" d="M879.327,450.442A20.281,20.281,0,1,1,859,470.732,20.333,20.333,0,0,1,879.327,450.442Zm5.531,18.408c-.126-1.3-.21-2.544-.374-3.779a23.7,23.7,0,0,0-2.372-8.2,9.664,9.664,0,0,0-1.5-2.076,1.576,1.576,0,0,0-2.567-.022,7.276,7.276,0,0,0-1.072,1.335,18.406,18.406,0,0,0-2.425,6.708c-.357,1.981-.557,3.99-.833,6.038ZM873.788,472.6c.124,1.28.208,2.523.371,3.755a23.266,23.266,0,0,0,2.371,8.2,10.258,10.258,0,0,0,1.779,2.314,1.324,1.324,0,0,0,2.037,0,6.819,6.819,0,0,0,1.343-1.577c2.32-3.9,2.842-8.251,3.147-12.7Zm22.018-3.749c-.206-5.346-5.528-12.33-10.247-13.419a23.725,23.725,0,0,1,2.13,6.533c.388,2.272.65,4.565.973,6.886Zm-22.7-13.5c-5.935,2.335-9.945,8.242-10.227,13.5h7.233A35.061,35.061,0,0,1,873.108,455.358Zm-2.992,17.237h-7.251c-.165,4.85,5.835,12.735,10.192,13.385A34.925,34.925,0,0,1,870.116,472.595Zm15.422,13.487c5.726-2.24,9.879-7.959,10.232-13.47h-7.245A34.964,34.964,0,0,1,885.539,486.082Z" transform="translate(-79.797 -79.544)" fill="#56256b"/>
  </g>
</svg>
