<svg xmlns="http://www.w3.org/2000/svg" width="18.479" height="18.478" viewBox="0 0 18.479 18.478">
  <g id="Group_224" data-name="Group 224" transform="translate(0)">
    <path id="Path_596" data-name="Path 596" d="M2491.992,3713.479h9.636c.113.013.225.026.338.041a4.65,4.65,0,0,1,3.955,3.5c.066.259.1.528.146.792v9.889a9.645,9.645,0,0,1-.229,1.035,4.616,4.616,0,0,1-4.45,3.216c-3.038.011-6.075.005-9.113,0a4.516,4.516,0,0,1-2.708-.848,4.575,4.575,0,0,1-1.978-3.906q0-4.439,0-8.878a7.1,7.1,0,0,1,.068-.952,4.617,4.617,0,0,1,3.325-3.706C2491.315,3713.58,2491.656,3713.539,2491.992,3713.479Zm-.888,9.227c0,1.155-.005,2.31,0,3.464a2.137,2.137,0,0,0,2.217,2.257q3.5.014,7,0a2.128,2.128,0,0,0,2.21-2.224q.007-3.482,0-6.964a2.129,2.129,0,0,0-2.2-2.229c-2.339-.01-4.678,0-7.018,0a2.164,2.164,0,0,0-2.207,2.272Q2491.1,3720.992,2491.1,3722.706Z" transform="translate(-2487.588 -3713.479)" fill="#fff"/>
    <path id="Path_597" data-name="Path 597" d="M2594.274,3889.564h1.747v.2q0,2.174,0,4.347a1.205,1.205,0,0,1-1.3,1.305h-6.782a1.2,1.2,0,0,1-1.3-1.289q0-2.183,0-4.365v-.192h1.73a3.1,3.1,0,0,0,1.454,3.908,2.9,2.9,0,0,0,3.429-.278A3.088,3.088,0,0,0,2594.274,3889.564Z" transform="translate(-2582.097 -3881.484)" fill="#fff"/>
    <path id="Path_598" data-name="Path 598" d="M2644.8,3872.561a2.021,2.021,0,1,1,1.988,2.027A2.027,2.027,0,0,1,2644.8,3872.561Z" transform="translate(-2637.589 -3863.329)" fill="#fff"/>
    <path id="Path_599" data-name="Path 599" d="M2744.582,3818.55v1.924h-1.918v-1.924Z" transform="translate(-2730.959 -3813.729)" fill="#fff"/>
  </g>
</svg>
