<svg xmlns="http://www.w3.org/2000/svg" width="18.18" height="18.291" viewBox="0 0 18.18 18.291">
  <g id="Group_226" data-name="Group 226" transform="translate(0)">
    <path id="Path_235" data-name="Path 235" d="M1656.276,9642.425v7.749a1.327,1.327,0,0,1-1.4,1.395h-15.393a1.332,1.332,0,0,1-1.359-1.048,1.637,1.637,0,0,1-.03-.343q0-7.755,0-15.51a1.321,1.321,0,0,1,1.385-1.391h15.406a1.32,1.32,0,0,1,1.388,1.387Zm-2.775,6.157c0-.049.006-.092.006-.135,0-1.548.007-3.1,0-4.646a6.536,6.536,0,0,0-.111-1.122,3.12,3.12,0,0,0-.942-1.793,2.921,2.921,0,0,0-1.891-.748,2.742,2.742,0,0,0-2.568,1.184c-.03.042-.06.084-.09.125l-.029,0v-1.1h-2.738v8.242h2.739v-.154c0-.509,0-1.02,0-1.529,0-1.043,0-2.086.008-3.129a1.456,1.456,0,0,1,.643-1.2,1.33,1.33,0,0,1,2.126.729,3.576,3.576,0,0,1,.107.88c.011,1.415,0,2.831,0,4.246v.156Zm-9.905-8.243h-2.727v8.243h2.727Zm-1.317-1.138c.074-.007.194-.015.312-.034a1.412,1.412,0,0,0,.155-2.758,1.957,1.957,0,0,0-.818-.037,1.413,1.413,0,0,0-1.045,2.108A1.484,1.484,0,0,0,1642.278,9639.2Z" transform="translate(-1638.095 -9633.277)" fill="#fff"/>
  </g>
</svg>
