<svg xmlns="http://www.w3.org/2000/svg" width="12.115" height="12.115" viewBox="0 0 12.115 12.115">
  <g id="Group_166" data-name="Group 166" transform="translate(0 0)">
    <path id="Path_588" data-name="Path 588" d="M1749.849,1468.71v.166a.271.271,0,0,0-.021.041q-1.835,5.616-3.667,11.232a.541.541,0,0,1-.311.371h-.189a.574.574,0,0,1-.282-.254q-1.208-2.086-2.423-4.169a.435.435,0,0,1,.029-.535c.249-.326.49-.657.734-.986.019-.026.035-.055.052-.083a.2.2,0,0,0-.1.043c-.333.246-.666.492-1,.74a.417.417,0,0,1-.5.028q-2.1-1.226-4.208-2.448a.395.395,0,0,1,.079-.743c.4-.128.8-.262,1.2-.393l10-3.268C1749.559,1468.349,1749.7,1468.41,1749.849,1468.71Z" transform="translate(-1737.734 -1468.406)" fill="#fff"/>
    <path id="Path_589" data-name="Path 589" d="M1764.684,1721.709a.369.369,0,0,1-.344-.21.378.378,0,0,1,.021-.394.5.5,0,0,1,.069-.081c.85-.851,1.7-1.7,2.553-2.548a.546.546,0,0,1,.288-.134.336.336,0,0,1,.355.2.374.374,0,0,1-.034.412.684.684,0,0,1-.079.087q-1.254,1.255-2.508,2.51A.428.428,0,0,1,1764.684,1721.709Z" transform="translate(-1763.455 -1710.439)" fill="#fff"/>
    <path id="Path_590" data-name="Path 590" d="M1843.552,1778.5a.429.429,0,0,1-.362-.235.346.346,0,0,1,.048-.418q.53-.547,1.077-1.077a.373.373,0,0,1,.523.023.378.378,0,0,1,.02.525q-.526.543-1.069,1.068A.849.849,0,0,1,1843.552,1778.5Z" transform="translate(-1839.81 -1766.929)" fill="#fff"/>
    <path id="Path_591" data-name="Path 591" d="M1755.44,1690.253a.775.775,0,0,1,.118-.217c.336-.348.68-.689,1.025-1.029a.384.384,0,0,1,.542,0,.377.377,0,0,1,.015.542q-.519.533-1.052,1.052a.353.353,0,0,1-.416.065A.406.406,0,0,1,1755.44,1690.253Z" transform="translate(-1754.88 -1681.925)" fill="#fff"/>
  </g>
</svg>
