<svg xmlns="http://www.w3.org/2000/svg" width="16.645" height="16.704" viewBox="0 0 16.645 16.704">
  <g id="Group_161" data-name="Group 161" transform="translate(-1530.112 -1053.044)">
    <path id="Path_583" data-name="Path 583" d="M1542.591,1069.748a8.3,8.3,0,0,1-2.182-.51,15.329,15.329,0,0,1-4.4-2.608,18.9,18.9,0,0,1-4.586-5.419,10.993,10.993,0,0,1-1.283-3.487,1.4,1.4,0,0,1,.173-1.046,13.716,13.716,0,0,1,2.753-3.268c.071-.059.15-.109.225-.162a.922.922,0,0,1,1.249.093.987.987,0,0,1,.2.215,22.608,22.608,0,0,1,1.936,3.148,6.2,6.2,0,0,1,.293.76.822.822,0,0,1-.182.859c-.269.285-.565.547-.86.806-.382.336-.392.332-.19.806a7.6,7.6,0,0,0,4.372,4.245.3.3,0,0,0,.423-.1c.241-.31.509-.6.774-.892a1,1,0,0,1,1.242-.281,18.782,18.782,0,0,1,1.727.879c.666.4,1.3.845,1.942,1.278a1.242,1.242,0,0,1,.512.761.623.623,0,0,1-.058.487,3.733,3.733,0,0,1-.377.56,13.158,13.158,0,0,1-3.3,2.71A2.619,2.619,0,0,1,1542.591,1069.748Z" transform="translate(0)" fill="#56256b"/>
  </g>
</svg>
