<svg xmlns="http://www.w3.org/2000/svg" width="50.894" height="62.316" viewBox="0 0 50.894 62.316">
  <g id="Group_17" data-name="Group 17" transform="translate(-2203.245 -2067)">
    <g id="Group_16" data-name="Group 16">
      <g id="Group_11" data-name="Group 11" transform="translate(2210.68 2067)">
        <path id="Path_217" data-name="Path 217" d="M2357.716,1428.454a15.554,15.554,0,0,0,2.953,8.919c3.644,5.063,9.771,7.013,15.228,4.678a13.544,13.544,0,0,0,8.549-11.639c.475-4.823.232-9.721.222-14.585a3.29,3.29,0,0,0-.815-1.823,2.823,2.823,0,0,0-3.253-.74,2.986,2.986,0,0,0-1.882,2.868c-.013,3.963,0,7.926-.01,11.889a9.8,9.8,0,0,1-2.121,6.258,6.669,6.669,0,0,1-10.741.018,9.752,9.752,0,0,1-2.133-6.251c-.015-3.933,0-7.866-.01-11.8a3,3,0,1,0-6,.035c-.01,2.09,0,4.18,0,6.273h.005C2357.709,1424.523,2357.672,1426.491,2357.716,1428.454Z" transform="translate(-2357.694 -1413.043)" fill="#56256b"/>
        <path id="Path_218" data-name="Path 218" d="M2480.749,1443.028a3.049,3.049,0,0,0,3.008-3.341q.007-5.8,0-11.6,0-5.754,0-11.509a5.332,5.332,0,0,0-.071-1.115,2.994,2.994,0,0,0-5.923.725q-.014,11.743,0,23.486A3.053,3.053,0,0,0,2480.749,1443.028Z" transform="translate(-2447.735 -1413.065)" fill="#56256b"/>
      </g>
      <path id="Path_219" data-name="Path 219" d="M2353.022,1619.942a2.977,2.977,0,0,0-4.073,2.865c-.027,3.963,0,7.926-.012,11.889a9.846,9.846,0,0,1-2.11,6.261,6.649,6.649,0,0,1-10.722.027,9.746,9.746,0,0,1-2.133-6.251c-.015-3.963,0-7.926-.013-11.889a2.992,2.992,0,1,0-5.978.022c-.012,4.118-.047,8.239.018,12.357a15.237,15.237,0,0,0,2.986,8.9c4.355,5.983,12.1,7.349,17.827,3.118a14.164,14.164,0,0,0,5.885-10.141,72.5,72.5,0,0,0,.233-7.849h0c0-2.153.013-4.308-.005-6.461A3,3,0,0,0,2353.022,1619.942Z" transform="translate(-124.715 479.616)" fill="#56256b"/>
      <path id="Path_220" data-name="Path 220" d="M2462.286,1635.511a1.237,1.237,0,0,1-.025-1.57c1.986-3.1,3.958-6.2,5.834-9.364a4.236,4.236,0,0,0,.542-2.455,2.629,2.629,0,0,0-2.35-2.335,2.839,2.839,0,0,0-3.055,1.358c-1.473,2.315-2.913,4.648-4.371,6.974-.173.275-.365.54-.593.878-.238-.36-.413-.613-.575-.875-1.438-2.3-2.853-4.611-4.321-6.891a3,3,0,1,0-5,3.285c1.976,3.138,3.916,6.3,5.916,9.424a1.236,1.236,0,0,1-.018,1.568c-2,3.125-3.953,6.276-5.906,9.429a2.994,2.994,0,1,0,5.076,3.151c1.435-2.265,2.845-4.546,4.27-6.816.16-.255.338-.5.581-.858.255.4.423.66.587.923,1.423,2.273,2.836,4.551,4.27,6.813a2.993,2.993,0,1,0,5.044-3.206Q2465.27,1640.206,2462.286,1635.511Z" transform="translate(-214.583 479.619)" fill="#56256b"/>
    </g>
  </g>
</svg>
