<svg id="Group_99" data-name="Group 99" xmlns="http://www.w3.org/2000/svg" width="22.989" height="23" viewBox="0 0 22.989 23">
  <path id="Path_232" data-name="Path 232" d="M1574.615,9644.707v5.105a6.316,6.316,0,0,1-5.123,6.277,5.841,5.841,0,0,1-1.1.111q-5.276.012-10.552,0a6.316,6.316,0,0,1-6.114-5.232,7.733,7.733,0,0,1-.1-1.182q-.011-5.123,0-10.244a6.326,6.326,0,0,1,5.342-6.258,5.923,5.923,0,0,1,.92-.074q5.235-.007,10.47,0a6.318,6.318,0,0,1,6.156,5.243,7.447,7.447,0,0,1,.094,1.132C1574.621,9641.293,1574.615,9643,1574.615,9644.707Zm-11.5,9.779q2.543,0,5.086,0a5.3,5.3,0,0,0,.659-.035,4.6,4.6,0,0,0,4.036-4.592q.006-5.145,0-10.292a4.659,4.659,0,0,0-.109-1.015,4.587,4.587,0,0,0-4.542-3.621q-5.12,0-10.239,0a4.877,4.877,0,0,0-.609.036,4.6,4.6,0,0,0-4.042,4.533c-.012,3.47,0,6.938,0,10.408a4.4,4.4,0,0,0,.31,1.628,4.6,4.6,0,0,0,4.336,2.949Q1560.554,9654.49,1563.114,9654.486Z" transform="translate(-1551.628 -9633.209)" fill="#fff"/>
  <path id="Path_233" data-name="Path 233" d="M1565.929,9641.375a6.134,6.134,0,1,1-6.139,6.133A6.145,6.145,0,0,1,1565.929,9641.375Zm-.007,1.729a4.406,4.406,0,1,0,4.4,4.4A4.4,4.4,0,0,0,1565.923,9643.1Z" transform="translate(-1554.427 -9636.01)" fill="#fff"/>
  <path id="Path_234" data-name="Path 234" d="M1560,9640.4a1.193,1.193,0,1,1-1.185-1.2A1.183,1.183,0,0,1,1560,9640.4Z" transform="translate(-1553.679 -9635.262)" fill="#fff"/>
</svg>
