<svg xmlns="http://www.w3.org/2000/svg" width="24.452" height="24.568" viewBox="0 0 24.452 24.568">
  <path id="Menu" d="M25.559,22.224l-8.628-9.4L7.758,21.813a1.876,1.876,0,0,1-2.417.112,1.389,1.389,0,0,1-.126-2.133l9.536-9.344L5.782.676a1.393,1.393,0,0,1,.253-2.124,1.871,1.871,0,0,1,2.407.223l8.628,9.4L26.243-.813A1.873,1.873,0,0,1,28.66-.925a1.388,1.388,0,0,1,.127,2.132L19.25,10.552l8.969,9.772a1.392,1.392,0,0,1-.253,2.124,1.85,1.85,0,0,1-1.076.337A1.806,1.806,0,0,1,25.559,22.224Z" transform="translate(-4.775 1.784)" fill="#fff"/>
</svg>
